<?xml version="1.0" encoding="utf-8"?>
<!-- Generator: Adobe Illustrator 26.4.1, SVG Export Plug-In . SVG Version: 6.00 Build 0)  -->
<svg version="1.1" id="Layer_1" xmlns="http://www.w3.org/2000/svg" xmlns:xlink="http://www.w3.org/1999/xlink" x="0px" y="0px"
	 viewBox="0 0 108.2 63.6" style="enable-background:new 0 0 108.2 63.6;" xml:space="preserve" fill="#5ADB9D">
<g>
	<path d="M23.4,20.3c0.4,0,0.7-0.1,0.9-0.3c0.2-0.2,0.3-0.5,0.3-0.7l1.4-8h7.9c0.4,0,0.7-0.1,0.8-0.3c0.2-0.2,0.2-0.4,0.2-0.6
		c0-0.3-0.1-0.5-0.2-0.7c-0.1-0.2-0.4-0.3-0.8-0.3h-7.6l1.3-7.4h8.5c0.4,0,0.6-0.1,0.8-0.3c0.2-0.2,0.3-0.4,0.3-0.7
		c0-0.3-0.1-0.5-0.2-0.7C37,0.1,36.7,0,36.3,0h-9.4c-0.4,0-0.7,0.1-0.8,0.3c-0.2,0.2-0.3,0.4-0.3,0.7l-3.2,18.2
		c-0.1,0.3,0,0.6,0.1,0.8S23,20.3,23.4,20.3z"/>
	<path d="M36.2,15.8c-0.2,0.8-0.3,1.5-0.3,2.1c0,0.9,0.1,1.5,0.4,1.9c0.3,0.4,0.7,0.6,1.3,0.6c0.6,0,1.3-0.2,1.9-0.6
		c0.6-0.4,1.2-0.9,1.8-1.5c0.6-0.6,1.2-1.3,1.7-2.1c0.3-0.4,0.6-0.9,1-1.4l-0.9,4.5c0,0.2,0,0.4,0.1,0.6s0.4,0.3,0.8,0.3
		c0.5,0,0.8-0.1,0.9-0.3c0.1-0.2,0.2-0.4,0.2-0.5l1.6-8.8c0.1-0.4,0-0.7-0.1-1c-0.2-0.2-0.4-0.3-0.8-0.3h-0.5h-0.9h-1.8
		c-0.9,0-1.8,0.2-2.6,0.5c-0.9,0.3-1.6,0.9-2.2,1.8c-0.3,0.5-0.6,1.1-0.9,1.9C36.6,14.3,36.4,15.1,36.2,15.8z M38.2,16.1
		c0.1-0.6,0.3-1.2,0.5-1.8c0.2-0.6,0.4-1.1,0.7-1.5c0.4-0.6,1-1.1,1.6-1.2c0.6-0.2,1.2-0.3,1.7-0.3h1.8c-0.4,0.6-0.7,1.1-1.1,1.7
		c-0.5,0.7-1.1,1.5-1.7,2.3c-0.9,1.1-1.6,1.9-2.2,2.4c-0.5,0.5-0.9,0.7-1.1,0.7c-0.2,0-0.3-0.1-0.3-0.3c0-0.2,0-0.4,0-0.5
		C38,17.2,38,16.7,38.2,16.1z"/>
	<path d="M57.8,20c0.2-0.2,0.3-0.4,0.3-0.6l1.2-6.3c0.1-0.6,0.1-1.2,0.1-1.8c-0.1-0.6-0.3-1.1-0.6-1.5c-0.3-0.4-0.8-0.6-1.5-0.6
		c-0.6,0-1.3,0.2-1.9,0.6c-0.6,0.4-1.2,1-1.8,1.7c-0.6,0.7-1.2,1.5-1.7,2.3c-0.3,0.4-0.5,0.8-0.7,1.2l0.8-4.6c0.1-0.3,0-0.6-0.1-0.8
		c-0.1-0.2-0.4-0.3-0.7-0.3c-0.3,0-0.5,0-0.7,0.1c-0.2,0.1-0.3,0.2-0.4,0.4c-0.1,0.1-0.1,0.3-0.2,0.5l-1.5,8.7
		c-0.1,0.3-0.1,0.6,0.1,0.8s0.4,0.3,0.8,0.4c0.3,0,0.6,0,0.7-0.1c0.1-0.1,0.2-0.3,0.4-0.5c0.4-0.6,0.8-1.4,1.2-2.1
		c0.5-0.8,0.9-1.5,1.4-2.3c0.5-0.8,1-1.5,1.5-2.1c0.5-0.6,1-1.1,1.4-1.5c0.4-0.4,0.8-0.6,1.1-0.6c0.2,0,0.3,0.1,0.4,0.3
		c0.1,0.2,0.1,0.5,0.1,0.8c0,0.3-0.1,0.6-0.1,0.9l-1.1,6.2c-0.1,0.3,0,0.5,0.1,0.7c0.1,0.2,0.4,0.3,0.8,0.3
		C57.4,20.3,57.6,20.2,57.8,20z"/>
	<path d="M63.3,20.4c0.7,0,1.4-0.2,2.1-0.6c0.7-0.4,1.4-0.9,2-1.6c0.6-0.6,1.1-1.3,1.5-2c0.1-0.2,0.2-0.5,0.1-0.7
		c-0.1-0.2-0.2-0.4-0.4-0.5c-0.2-0.1-0.5-0.2-0.8-0.1c-0.3,0.1-0.5,0.3-0.6,0.5c-0.1,0.2-0.3,0.5-0.5,0.8c-0.3,0.3-0.6,0.7-0.9,1
		c-0.3,0.3-0.7,0.6-1.1,0.8s-0.7,0.3-1.1,0.3c-0.3,0-0.5-0.1-0.6-0.3c-0.1-0.2-0.2-0.5-0.2-0.9c0-0.2,0-0.5,0.1-0.9
		c0.1-0.4,0.2-0.8,0.3-1.2c0.1-0.4,0.3-0.9,0.4-1.3c0.2-0.4,0.3-0.8,0.5-1c0.5-0.7,1.1-1.2,1.9-1.5c0.8-0.3,1.8-0.3,3.1,0
		c0.3,0,0.5-0.1,0.7-0.3c0.2-0.2,0.3-0.4,0.3-0.6c0-0.3-0.1-0.5-0.2-0.7c-0.2-0.2-0.4-0.3-0.7-0.3c-1.5-0.2-2.8-0.1-3.9,0.3
		c-1.1,0.4-2,1.1-2.6,2c-0.3,0.5-0.6,1.1-0.9,1.9c-0.3,0.7-0.5,1.5-0.6,2.2c-0.1,0.7-0.2,1.4-0.2,1.9c0,1,0.2,1.7,0.6,2.2
		C62.1,20.2,62.6,20.4,63.3,20.4z"/>
	<path d="M77.6,23.4c-0.2,1-0.5,1.9-0.9,2.5c-0.3,0.4-0.6,0.8-1.1,1.1c-0.4,0.3-1,0.5-1.6,0.6c-0.2,0-0.4,0-0.8,0
		c-0.4,0-0.7,0-1.2,0c-0.4,0-0.8,0-1.1,0c-0.3,0-0.6,0-0.8,0c-0.5,0-0.8,0.1-1,0.3c-0.2,0.2-0.3,0.5-0.3,0.7s0.1,0.5,0.3,0.7
		c0.2,0.2,0.5,0.2,1,0.2c0.1,0,0.4,0,0.8,0c0.4,0,0.8,0,1.3,0s0.9,0,1.3-0.1c0.4,0,0.8-0.1,1-0.1c0.8-0.1,1.6-0.4,2.2-0.8
		c0.6-0.4,1.2-1,1.6-1.6c0.5-0.9,0.9-1.9,1.1-3c0.2-1.1,0.4-2.4,0.7-3.6l1.7-9.9c0.1-0.3,0-0.6-0.1-0.8c-0.2-0.2-0.4-0.3-0.7-0.3
		c-0.3,0-0.6,0.1-0.7,0.2s-0.3,0.3-0.4,0.6c-0.3,0.7-0.8,1.4-1.2,2.1c-0.5,0.8-0.9,1.5-1.4,2.3c-0.5,0.7-1,1.4-1.5,2
		c-0.5,0.6-0.9,1.1-1.4,1.5c-0.4,0.4-0.8,0.5-1.1,0.5c-0.2,0-0.3-0.1-0.4-0.3c-0.1-0.2-0.1-0.5,0-0.8c0-0.3,0.1-0.6,0.1-0.9l1.1-6.2
		c0.1-0.3,0-0.6-0.1-0.8c-0.2-0.2-0.4-0.3-0.7-0.3c-0.3,0-0.6,0.1-0.8,0.3c-0.2,0.2-0.4,0.4-0.4,0.8l-1.1,6.2
		c-0.1,0.6-0.1,1.2-0.1,1.8s0.2,1.1,0.5,1.5c0.3,0.4,0.8,0.6,1.4,0.6c0.6,0,1.1-0.2,1.7-0.5c0.6-0.3,1.1-0.7,1.6-1.3
		c0.5-0.5,1-1.1,1.5-1.7c0.5-0.6,0.9-1.3,1.3-2l-1,5.3C77.9,21.4,77.7,22.4,77.6,23.4z"/>
</g>
<g>
	<path d="M14.3,19.1c0.4,0,0.6-0.1,0.8-0.3c0.2-0.2,0.3-0.4,0.3-0.6c0-0.3-0.1-0.5-0.3-0.7c-0.2-0.2-0.4-0.3-0.8-0.3H1.1
		c-0.4,0-0.6,0.1-0.8,0.3C0.1,17.7,0,17.9,0,18.2c0,0.2,0.1,0.5,0.3,0.6c0.2,0.2,0.4,0.3,0.8,0.3h5.4l-3,17.4c0,0.3,0,0.6,0.2,0.8
		c0.2,0.2,0.4,0.3,0.8,0.3c0.4,0,0.7-0.1,0.8-0.3c0.1-0.2,0.2-0.4,0.3-0.6l3.1-17.5H14.3z"/>
	<path d="M23,26.9c-0.2-0.2-0.4-0.3-0.7-0.3c-0.3,0-0.6,0.1-0.7,0.2c-0.2,0.1-0.3,0.3-0.4,0.6c-0.3,0.7-0.8,1.4-1.2,2.1
		c-0.5,0.8-0.9,1.5-1.4,2.3c-0.5,0.7-1,1.4-1.5,2c-0.5,0.6-0.9,1.1-1.4,1.5c-0.4,0.4-0.8,0.5-1.1,0.5c-0.2,0-0.3-0.1-0.4-0.3
		c-0.1-0.2-0.1-0.5,0-0.8c0-0.3,0.1-0.6,0.1-0.9l1.1-6.2c0.1-0.3,0-0.6-0.1-0.8c-0.2-0.2-0.4-0.3-0.7-0.3c-0.3,0-0.6,0.1-0.8,0.3
		c-0.2,0.2-0.4,0.4-0.4,0.8l-1.1,6.2c-0.1,0.6-0.1,1.2-0.1,1.8c0.1,0.6,0.2,1.1,0.5,1.5c0.3,0.4,0.8,0.6,1.4,0.6
		c0.6,0,1.1-0.2,1.7-0.5c0.6-0.3,1.1-0.7,1.6-1.3c0.5-0.5,1-1.1,1.5-1.7c0.5-0.6,0.9-1.3,1.3-2l-1,5.3c-0.2,1.1-0.4,2.1-0.6,3.1
		c-0.2,1-0.5,1.9-0.9,2.5c-0.3,0.4-0.6,0.8-1.1,1.1c-0.4,0.3-1,0.5-1.6,0.6c-0.2,0-0.4,0-0.8,0c-0.4,0-0.7,0-1.2,0s-0.8,0-1.1,0
		c-0.3,0-0.6,0-0.8,0c-0.5,0-0.8,0.1-1,0.3c-0.2,0.2-0.3,0.5-0.3,0.7c0,0.3,0.1,0.5,0.3,0.7c0.2,0.2,0.5,0.2,1,0.2
		c0.1,0,0.4,0,0.8,0c0.4,0,0.8,0,1.3,0c0.5,0,0.9,0,1.3-0.1c0.4,0,0.8-0.1,1-0.1c0.8-0.1,1.6-0.4,2.2-0.8s1.2-1,1.6-1.6
		c0.5-0.9,0.9-1.9,1.1-3c0.2-1.1,0.4-2.4,0.7-3.6l1.7-9.9C23.2,27.4,23.1,27.1,23,26.9z"/>
	<path d="M32.1,36.9c0.8-0.5,1.5-1.1,2.1-1.9c0.6-0.8,1-1.7,1.2-2.7c0.3-1,0.4-2.1,0.4-3.2c0-0.9-0.2-1.5-0.5-1.9s-0.8-0.6-1.4-0.6
		c-0.5,0-1.1,0.2-1.8,0.6c-0.6,0.4-1.3,0.9-1.9,1.5c-0.6,0.6-1.3,1.4-1.9,2.2c-0.2,0.3-0.5,0.7-0.7,1l0.7-4.2c0.1-0.3,0-0.6-0.2-0.8
		s-0.4-0.3-0.7-0.3c-0.2,0-0.5,0.1-0.7,0.2c-0.2,0.2-0.4,0.4-0.4,0.7l-3.3,18.4c-0.1,0.3,0,0.6,0.2,0.7c0.2,0.2,0.4,0.3,0.7,0.3
		c0.2,0,0.5-0.1,0.7-0.2c0.2-0.2,0.4-0.4,0.4-0.7l1.5-8.5h2.5C30.3,37.6,31.3,37.3,32.1,36.9z M29.4,32.2c0.5-0.7,1-1.3,1.6-1.9
		c0.5-0.6,1-1,1.4-1.4c0.4-0.3,0.7-0.5,0.9-0.5c0.2,0,0.4,0.1,0.4,0.3c0,0.2,0.1,0.3,0.1,0.5c0,1.4-0.2,2.5-0.6,3.5
		c-0.4,0.9-1,1.7-1.6,2.2c-0.7,0.5-1.5,0.7-2.3,0.7h-2c0.2-0.4,0.5-0.9,0.8-1.4C28.4,33.6,28.9,32.9,29.4,32.2z"/>
	<path d="M39.4,33.9c0.5-0.2,1-0.5,1.5-0.8c0.5-0.3,1-0.5,1.4-0.7c0.8-0.4,1.4-0.8,1.9-1.3c0.5-0.5,1-1,1.3-1.5
		c0.3-0.5,0.4-0.9,0.4-1.3c0-0.4-0.1-0.7-0.4-1c-0.3-0.3-0.6-0.5-1.1-0.6c-0.4-0.1-0.9-0.2-1.4-0.2c-0.7,0-1.5,0.2-2.2,0.5
		c-0.7,0.3-1.3,0.9-1.8,1.6c-0.3,0.4-0.6,1-0.9,1.6c-0.3,0.6-0.5,1.3-0.7,1.9c-0.2,0.7-0.3,1.3-0.4,1.9c-0.1,0.9,0,1.6,0.3,2.1
		c0.3,0.5,0.7,0.9,1.2,1.1c0.5,0.2,1,0.3,1.6,0.3c0.8,0,1.4-0.1,2-0.4c0.6-0.3,1-0.6,1.4-0.9c0.4-0.3,0.6-0.6,0.7-0.7
		c0.3-0.4,0.5-0.8,0.5-1.1c0-0.3-0.1-0.5-0.3-0.6c-0.2-0.2-0.5-0.2-0.7-0.2c-0.3,0.1-0.6,0.3-0.9,0.7c-0.1,0.1-0.3,0.3-0.5,0.5
		c-0.2,0.2-0.5,0.4-0.9,0.6c-0.3,0.2-0.7,0.3-1.1,0.3c-0.4,0-0.8-0.1-0.9-0.4c-0.2-0.3-0.3-0.6-0.3-1.1c0-0.1,0-0.2,0-0.3
		C39.2,34,39.3,33.9,39.4,33.9z M39.9,31.1c0.2-0.6,0.5-1,0.7-1.4c0.4-0.5,0.8-0.8,1.2-1.1c0.4-0.2,0.8-0.3,1.2-0.3
		c0.2,0,0.5,0,0.6,0.1c0.2,0.1,0.2,0.2,0.2,0.3c0,0.2-0.2,0.5-0.5,0.9c-0.4,0.4-1,0.8-1.9,1.3c-0.4,0.2-0.7,0.5-1.1,0.7
		c-0.3,0.2-0.6,0.3-0.8,0.5C39.7,31.8,39.8,31.4,39.9,31.1z"/>
</g>
<g>
	<path d="M44.5,44.2c0-0.3-0.1-0.6-0.3-0.8c-0.1-0.1-0.2-0.1-0.4-0.1c-0.2,0-0.4,0-0.8-0.1c-0.4,0-0.8,0-1.5,0
		c-1.7,0-3.2,0.2-4.4,0.5c-1.2,0.4-2.2,0.8-3,1.5c-0.8,0.6-1.4,1.4-1.9,2.2c-0.5,0.8-0.9,1.7-1.2,2.6c-0.3,0.9-0.5,1.9-0.7,2.9
		c0,0.2-0.1,0.5-0.2,0.9c-0.1,0.5-0.2,1-0.2,1.6c-0.1,0.6-0.2,1.3-0.2,1.9c-0.1,0.6-0.1,1.2-0.1,1.7c0,0.7,0.1,1.4,0.4,2.1
		c0.3,0.7,0.7,1.3,1.3,1.7c0.6,0.5,1.5,0.7,2.5,0.7c1.3,0,2.6-0.4,3.8-1.3c1.3-0.9,2.6-2.2,3.8-4.1c0.3-0.5,0.5-0.9,0.6-1
		c0.1-0.2,0.1-0.3,0.1-0.4c0-0.2-0.1-0.4-0.3-0.6c-0.2-0.2-0.4-0.2-0.7-0.2c-0.3,0-0.5,0.1-0.7,0.3c-0.2,0.2-0.4,0.5-0.7,0.9
		c-1.2,1.7-2.3,2.9-3.2,3.5c-0.9,0.7-1.9,1-2.7,1c-0.6,0-1-0.1-1.3-0.4c-0.3-0.3-0.6-0.6-0.7-1c-0.1-0.4-0.2-0.8-0.2-1.2
		c0-0.7,0.1-1.5,0.2-2.4c0.1-0.9,0.2-1.6,0.4-2.4c0.1-0.7,0.2-1.3,0.3-1.7c0.1-0.7,0.3-1.5,0.5-2.2c0.2-0.7,0.5-1.4,0.9-2
		c0.4-0.6,0.9-1.2,1.5-1.7c0.6-0.5,1.4-0.9,2.4-1.2c1-0.3,2.2-0.4,3.6-0.4c0.6,0,1.1,0,1.4,0c0.3,0,0.6,0,0.8-0.1
		c0.2,0,0.3-0.1,0.4-0.2C44.4,44.7,44.5,44.5,44.5,44.2z"/>
	<path d="M54.5,53c-0.3-0.4-0.8-0.6-1.4-0.6c-0.6,0-1.2,0.2-1.8,0.6c-0.6,0.4-1.1,0.8-1.7,1.4c-0.5,0.6-1,1.2-1.5,1.9
		c-0.5,0.7-0.9,1.3-1.3,2l2.5-14.1c0.1-0.4,0-0.6-0.2-0.8s-0.4-0.3-0.7-0.3c-0.3,0-0.5,0.1-0.8,0.2c-0.2,0.2-0.4,0.4-0.4,0.8
		L44,62.2c-0.1,0.4,0,0.6,0.1,0.8s0.4,0.3,0.7,0.3c0.3,0.1,0.5,0,0.7-0.1c0.2-0.1,0.3-0.3,0.4-0.6c0.4-0.7,0.8-1.4,1.3-2.2
		c0.5-0.8,1-1.5,1.5-2.3c0.5-0.7,1-1.4,1.5-2c0.5-0.6,0.9-1.1,1.3-1.5c0.4-0.4,0.7-0.6,1-0.6c0.2,0,0.4,0.1,0.4,0.3
		c0.1,0.2,0.1,0.5,0.1,0.8c0,0.3-0.1,0.6-0.1,0.9l-1.2,6.3c-0.1,0.2,0,0.5,0.1,0.7c0.1,0.2,0.4,0.3,0.7,0.3c0.5,0,0.8-0.1,0.9-0.3
		c0.2-0.2,0.2-0.4,0.3-0.5l1.2-6.3c0.1-0.6,0.1-1.2,0.1-1.8C55,53.8,54.8,53.4,54.5,53z"/>
	<path d="M64.1,52.7c-0.4-0.1-0.9-0.2-1.4-0.2c-0.7,0-1.5,0.2-2.2,0.5c-0.7,0.3-1.3,0.9-1.8,1.6c-0.3,0.4-0.6,1-0.9,1.6
		c-0.3,0.6-0.5,1.3-0.7,1.9c-0.2,0.7-0.3,1.3-0.4,1.9c-0.1,0.9,0,1.6,0.3,2.1c0.3,0.5,0.7,0.9,1.2,1.1c0.5,0.2,1,0.3,1.6,0.3
		c0.8,0,1.4-0.1,2-0.4c0.6-0.3,1-0.6,1.4-0.9c0.4-0.3,0.6-0.6,0.7-0.7c0.3-0.4,0.5-0.8,0.5-1.1c0-0.3-0.1-0.5-0.3-0.6
		c-0.2-0.2-0.5-0.2-0.7-0.2c-0.3,0.1-0.6,0.3-0.9,0.7c-0.1,0.1-0.3,0.3-0.5,0.5c-0.2,0.2-0.5,0.4-0.9,0.6c-0.3,0.2-0.7,0.3-1.1,0.3
		c-0.4,0-0.8-0.1-0.9-0.4c-0.2-0.3-0.3-0.6-0.3-1.1c0-0.1,0-0.2,0-0.3c0.1,0,0.2-0.1,0.2-0.1c0.5-0.2,1-0.5,1.5-0.8
		c0.5-0.3,1-0.5,1.4-0.7c0.8-0.4,1.4-0.8,1.9-1.3c0.5-0.5,1-1,1.3-1.5c0.3-0.5,0.4-0.9,0.4-1.3c0-0.4-0.1-0.7-0.4-1
		C64.9,53,64.6,52.8,64.1,52.7z M63,55.5c-0.4,0.4-1,0.8-1.9,1.3c-0.4,0.2-0.7,0.5-1.1,0.7c-0.3,0.2-0.6,0.3-0.8,0.5
		c0.1-0.3,0.2-0.6,0.3-1c0.2-0.6,0.5-1,0.7-1.4c0.4-0.5,0.8-0.8,1.2-1.1c0.4-0.2,0.8-0.3,1.2-0.3c0.2,0,0.5,0,0.6,0.1
		c0.2,0.1,0.2,0.2,0.2,0.3C63.6,54.9,63.4,55.2,63,55.5z"/>
	<path d="M74.8,52.6c-1.5-0.2-2.8-0.1-3.9,0.3c-1.1,0.4-2,1.1-2.6,2c-0.3,0.5-0.6,1.1-0.9,1.9c-0.3,0.7-0.5,1.5-0.6,2.2
		c-0.1,0.7-0.2,1.4-0.2,1.9c0,1,0.2,1.7,0.6,2.2c0.4,0.4,1,0.7,1.7,0.7c0.7,0,1.4-0.2,2.1-0.6c0.7-0.4,1.4-0.9,2-1.6
		c0.6-0.6,1.1-1.3,1.5-2c0.1-0.2,0.2-0.5,0.1-0.7c-0.1-0.2-0.2-0.4-0.4-0.5C74,58,73.8,58,73.5,58.1c-0.3,0.1-0.5,0.3-0.6,0.5
		c-0.1,0.2-0.3,0.5-0.5,0.8c-0.3,0.3-0.6,0.7-0.9,1c-0.3,0.3-0.7,0.6-1.1,0.8c-0.4,0.2-0.7,0.3-1.1,0.3c-0.3,0-0.5-0.1-0.6-0.3
		c-0.1-0.2-0.2-0.5-0.2-0.9c0-0.2,0-0.5,0.1-0.9c0.1-0.4,0.2-0.8,0.3-1.2c0.1-0.4,0.3-0.9,0.4-1.3c0.2-0.4,0.3-0.8,0.5-1
		c0.5-0.7,1.1-1.2,1.9-1.5c0.8-0.3,1.8-0.3,3.1,0c0.3,0,0.5-0.1,0.7-0.3c0.2-0.2,0.3-0.4,0.3-0.6c0-0.3-0.1-0.5-0.2-0.7
		C75.4,52.7,75.1,52.6,74.8,52.6z"/>
	<path d="M85.9,56.5c0.5-0.6,0.8-1.3,0.8-2.1c0-0.3-0.1-0.7-0.2-1c-0.1-0.3-0.4-0.6-0.7-0.8c-0.3-0.2-0.7-0.3-1.2-0.3
		c-0.6,0-1.3,0.2-2.1,0.7c-0.7,0.4-1.4,1-2.1,1.8c-0.3,0.3-0.5,0.6-0.8,0.9l2-11.5c0.1-0.4,0-0.7-0.2-0.9c-0.2-0.2-0.4-0.3-0.8-0.3
		c-0.3,0-0.5,0.1-0.7,0.3s-0.3,0.4-0.4,0.8l-3.2,18.2c-0.1,0.3,0,0.6,0.2,0.8c0.2,0.2,0.4,0.3,0.7,0.3c0.3,0,0.6-0.1,0.8-0.2
		c0.2-0.1,0.4-0.4,0.4-0.7l0.6-3.3c0.1-0.2,0.3-0.5,0.4-0.7c0.6-0.9,1.3-1.7,1.9-2.3c0.6-0.6,1.2-1.1,1.7-1.4s0.9-0.5,1.1-0.5
		c0.2,0,0.3,0.1,0.4,0.2c0.1,0.1,0.1,0.2,0.1,0.4c0,0.3-0.1,0.6-0.3,0.8c-0.2,0.3-0.5,0.6-0.9,0.9c-0.4,0.3-1,0.7-1.7,1.1
		c-0.3,0.2-0.5,0.3-0.6,0.6c-0.1,0.2-0.1,0.5,0.1,0.8l2.8,3.9c0.1,0.2,0.3,0.3,0.5,0.5s0.4,0.2,0.6,0.2c0.2,0,0.4-0.1,0.6-0.2
		c0.2-0.1,0.3-0.3,0.4-0.5c0-0.1,0-0.3,0-0.4c0-0.2-0.1-0.3-0.2-0.5l-2.4-3.5C84.6,57.8,85.4,57.1,85.9,56.5z"/>
	<path d="M95.7,52.7c-0.4-0.1-0.9-0.2-1.4-0.2c-0.7,0-1.5,0.2-2.2,0.5c-0.7,0.3-1.3,0.9-1.8,1.6c-0.3,0.4-0.6,1-0.9,1.6
		c-0.3,0.6-0.5,1.3-0.7,1.9c-0.2,0.7-0.3,1.3-0.4,1.9c-0.1,0.9,0,1.6,0.3,2.1c0.3,0.5,0.7,0.9,1.2,1.1c0.5,0.2,1,0.3,1.6,0.3
		c0.8,0,1.4-0.1,2-0.4c0.6-0.3,1-0.6,1.4-0.9c0.4-0.3,0.6-0.6,0.7-0.7c0.3-0.4,0.5-0.8,0.5-1.1c0-0.3-0.1-0.5-0.3-0.6
		c-0.2-0.2-0.5-0.2-0.7-0.2c-0.3,0.1-0.6,0.3-0.9,0.7c-0.1,0.1-0.3,0.3-0.5,0.5c-0.2,0.2-0.5,0.4-0.9,0.6c-0.3,0.2-0.7,0.3-1.1,0.3
		c-0.4,0-0.8-0.1-0.9-0.4c-0.2-0.3-0.3-0.6-0.3-1.1c0-0.1,0-0.2,0-0.3c0.1,0,0.2-0.1,0.2-0.1c0.5-0.2,1-0.5,1.5-0.8
		c0.5-0.3,1-0.5,1.4-0.7c0.8-0.4,1.4-0.8,1.9-1.3c0.5-0.5,1-1,1.3-1.5c0.3-0.5,0.4-0.9,0.4-1.3c0-0.4-0.1-0.7-0.4-1
		C96.5,53,96.1,52.8,95.7,52.7z M94.6,55.5c-0.4,0.4-1,0.8-1.9,1.3c-0.4,0.2-0.7,0.5-1.1,0.7c-0.3,0.2-0.6,0.3-0.8,0.5
		c0.1-0.3,0.2-0.6,0.3-1c0.2-0.6,0.5-1,0.7-1.4c0.4-0.5,0.8-0.8,1.2-1.1c0.4-0.2,0.8-0.3,1.2-0.3c0.2,0,0.5,0,0.6,0.1
		c0.2,0.1,0.2,0.2,0.2,0.3C95.1,54.9,95,55.2,94.6,55.5z"/>
	<path d="M107.9,53.9c-0.2-0.4-0.4-0.8-0.7-1.1c-0.3-0.3-0.7-0.4-1.1-0.4c-0.6,0-1.2,0.2-1.8,0.6c-0.6,0.4-1.3,1-2,1.8
		c-0.4,0.4-0.7,0.9-1.1,1.5l0.4-2.5c0.1-0.4,0-0.7-0.2-0.9c-0.2-0.2-0.4-0.3-0.7-0.3c-0.2,0-0.5,0.1-0.7,0.3
		c-0.2,0.2-0.4,0.4-0.4,0.7l-1.6,8.9c-0.1,0.3,0,0.6,0.2,0.8c0.2,0.2,0.4,0.3,0.7,0.3c0.3,0,0.5-0.1,0.7-0.2
		c0.2-0.2,0.4-0.4,0.4-0.8l0.4-2.2c0.7-1.1,1.3-2,1.9-2.8c0.8-1.1,1.5-1.8,2.1-2.3c0.6-0.5,0.9-0.7,1.2-0.7c0.2,0,0.3,0.1,0.4,0.3
		c0.1,0.2,0.1,0.4,0.2,0.7c0,0.2,0.1,0.4,0.3,0.6c0.2,0.2,0.4,0.2,0.7,0.2c0.3,0,0.5-0.1,0.7-0.3c0.1-0.2,0.2-0.4,0.2-0.7
		C108.2,54.8,108.1,54.3,107.9,53.9z"/>
</g>
</svg>
